<svg width="54" height="54" viewBox="0 0 54 54" fill="none" xmlns="http://www.w3.org/2000/svg">
<g clip-path="url(#clip0)">
<path d="M47.25 0H6.75C4.95979 0 3.2429 0.711159 1.97703 1.97703C0.711159 3.2429 0 4.95979 0 6.75L0 40.5C0 42.2902 0.711159 44.0071 1.97703 45.273C3.2429 46.5388 4.95979 47.25 6.75 47.25C7.34674 47.25 7.91903 47.0129 8.34099 46.591C8.76295 46.169 9 45.5967 9 45C9 44.4033 8.76295 43.831 8.34099 43.409C7.91903 42.9871 7.34674 42.75 6.75 42.75C6.15326 42.75 5.58097 42.5129 5.15901 42.091C4.73705 41.669 4.5 41.0967 4.5 40.5V16.875C4.5 16.5766 4.61853 16.2905 4.8295 16.0795C5.04048 15.8685 5.32663 15.75 5.625 15.75H48.375C48.6734 15.75 48.9595 15.8685 49.1705 16.0795C49.3815 16.2905 49.5 16.5766 49.5 16.875V40.5C49.5 41.0967 49.2629 41.669 48.841 42.091C48.419 42.5129 47.8467 42.75 47.25 42.75C46.6533 42.75 46.081 42.9871 45.659 43.409C45.2371 43.831 45 44.4033 45 45C45 45.5967 45.2371 46.169 45.659 46.591C46.081 47.0129 46.6533 47.25 47.25 47.25C49.0402 47.25 50.7571 46.5388 52.023 45.273C53.2888 44.0071 54 42.2902 54 40.5V6.75C54 4.95979 53.2888 3.2429 52.023 1.97703C50.7571 0.711159 49.0402 0 47.25 0V0ZM9 10.125C8.55499 10.125 8.11998 9.99304 7.74997 9.74581C7.37996 9.49857 7.09157 9.14717 6.92127 8.73604C6.75097 8.3249 6.70642 7.8725 6.79323 7.43605C6.88005 6.99959 7.09434 6.59868 7.40901 6.28401C7.72368 5.96934 8.12459 5.75505 8.56105 5.66823C8.9975 5.58142 9.4499 5.62597 9.86104 5.79627C10.2722 5.96657 10.6236 6.25496 10.8708 6.62497C11.118 6.99498 11.25 7.42999 11.25 7.875C11.25 8.47174 11.0129 9.04403 10.591 9.46599C10.169 9.88795 9.59674 10.125 9 10.125ZM15.75 10.125C15.305 10.125 14.87 9.99304 14.5 9.74581C14.13 9.49857 13.8416 9.14717 13.6713 8.73604C13.501 8.3249 13.4564 7.8725 13.5432 7.43605C13.63 6.99959 13.8443 6.59868 14.159 6.28401C14.4737 5.96934 14.8746 5.75505 15.311 5.66823C15.7475 5.58142 16.1999 5.62597 16.611 5.79627C17.0222 5.96657 17.3736 6.25496 17.6208 6.62497C17.868 6.99498 18 7.42999 18 7.875C18 8.47174 17.7629 9.04403 17.341 9.46599C16.919 9.88795 16.3467 10.125 15.75 10.125ZM22.5 10.125C22.055 10.125 21.62 9.99304 21.25 9.74581C20.88 9.49857 20.5916 9.14717 20.4213 8.73604C20.251 8.3249 20.2064 7.8725 20.2932 7.43605C20.38 6.99959 20.5943 6.59868 20.909 6.28401C21.2237 5.96934 21.6246 5.75505 22.061 5.66823C22.4975 5.58142 22.9499 5.62597 23.361 5.79627C23.7722 5.96657 24.1236 6.25496 24.3708 6.62497C24.618 6.99498 24.75 7.42999 24.75 7.875C24.75 8.47174 24.5129 9.04403 24.091 9.46599C23.669 9.88795 23.0967 10.125 22.5 10.125Z" fill="#3076F8"/>
<path d="M12.375 39.375C12.3733 41.7216 12.9363 44.0341 14.0165 46.1172C15.0966 48.2004 16.6621 49.9931 18.5808 51.344C20.4996 52.6948 22.7152 53.5641 25.0406 53.8785C27.366 54.1929 29.7329 53.9431 31.9414 53.1503C34.15 52.3575 36.1353 51.0448 37.7298 49.3232C39.3243 47.6017 40.4812 45.5217 41.1027 43.2589C41.7242 40.9962 41.7921 38.6171 41.3007 36.3226C40.8093 34.0281 39.773 31.8855 38.2793 30.0757C38.1903 29.9682 38.1447 29.8313 38.1513 29.6919C38.158 29.5525 38.2164 29.4206 38.3153 29.322L39.4403 28.197C39.7478 27.8789 39.9181 27.4527 39.9145 27.0102C39.9108 26.5678 39.7336 26.1444 39.4208 25.8314C39.1081 25.5184 38.6849 25.3407 38.2425 25.3367C37.8 25.3326 37.3737 25.5025 37.0553 25.8097L35.7593 27.1058C35.6673 27.1974 35.5465 27.2544 35.4173 27.2671C35.2882 27.2798 35.1586 27.2474 35.0505 27.1755C33.2774 26.0005 31.2682 25.2286 29.1645 24.9142C29.0313 24.8943 28.9097 24.8273 28.8218 24.7253C28.7338 24.6233 28.6854 24.4932 28.6853 24.3585V23.625C28.6853 23.4758 28.7445 23.3327 28.85 23.2273C28.9555 23.1218 29.0986 23.0625 29.2478 23.0625H30.3728C30.8203 23.0625 31.2495 22.8847 31.566 22.5682C31.8825 22.2518 32.0603 21.8226 32.0603 21.375C32.0603 20.9274 31.8825 20.4982 31.566 20.1818C31.2495 19.8653 30.8203 19.6875 30.3728 19.6875H23.6228C23.1752 19.6875 22.746 19.8653 22.4295 20.1818C22.113 20.4982 21.9353 20.9274 21.9353 21.375C21.9353 21.8226 22.113 22.2518 22.4295 22.5682C22.746 22.8847 23.1752 23.0625 23.6228 23.0625H24.75C24.8992 23.0625 25.0423 23.1218 25.1478 23.2273C25.2532 23.3327 25.3125 23.4758 25.3125 23.625V24.3562C25.3124 24.4909 25.2639 24.6211 25.176 24.723C25.088 24.825 24.9664 24.8921 24.8333 24.912C22.7293 25.2253 20.7199 25.9973 18.9473 27.1732C18.8392 27.2452 18.7096 27.2775 18.5804 27.2648C18.4513 27.2521 18.3305 27.1951 18.2385 27.1035L16.9425 25.8075C16.7868 25.6464 16.6005 25.5179 16.3946 25.4296C16.1887 25.3413 15.9672 25.2948 15.7431 25.293C15.5191 25.2911 15.2969 25.3339 15.0895 25.4189C14.8822 25.5038 14.6938 25.6292 14.5355 25.7877C14.3771 25.9462 14.2519 26.1347 14.1671 26.3421C14.0824 26.5496 14.0398 26.7718 14.0418 26.9959C14.0439 27.2199 14.0905 27.4413 14.1791 27.6472C14.2676 27.853 14.3963 28.0392 14.5575 28.1947L15.6825 29.3197C15.7813 29.4183 15.8398 29.5502 15.8464 29.6897C15.8531 29.8291 15.8075 29.966 15.7185 30.0735C13.5542 32.6897 12.3716 35.9796 12.375 39.375ZM27 29.25C29.0025 29.25 30.9601 29.8438 32.6252 30.9564C34.2902 32.0689 35.5879 33.6502 36.3543 35.5003C37.1206 37.3504 37.3211 39.3862 36.9305 41.3503C36.5398 43.3143 35.5755 45.1184 34.1595 46.5345C32.7435 47.9505 30.9394 48.9148 28.9753 49.3055C27.0112 49.6961 24.9754 49.4956 23.1253 48.7293C21.2752 47.9629 19.6939 46.6652 18.5814 45.0002C17.4688 43.3351 16.875 41.3775 16.875 39.375C16.878 36.6906 17.9457 34.117 19.8438 32.2188C21.742 30.3207 24.3156 29.253 27 29.25Z" fill="#164DB3"/>
<path d="M27 41.0626C27.2214 41.063 27.4408 41.0197 27.6454 40.9352C27.85 40.8506 28.036 40.7265 28.1925 40.5698L31.5675 37.1948C31.7287 37.0392 31.8574 36.8531 31.9459 36.6472C32.0344 36.4414 32.0811 36.22 32.0831 35.9959C32.0852 35.7719 32.0426 35.5496 31.9579 35.3422C31.8731 35.1348 31.7479 34.9463 31.5895 34.7878C31.4312 34.6293 31.2428 34.5039 31.0355 34.4189C30.8281 34.334 30.6059 34.2912 30.3819 34.293C30.1578 34.2949 29.9363 34.3413 29.7304 34.4297C29.5245 34.518 29.3382 34.6465 29.1825 34.8076L25.8075 38.1826C25.5718 38.4186 25.4113 38.7191 25.3463 39.0463C25.2813 39.3734 25.3147 39.7125 25.4423 40.0206C25.5699 40.3288 25.786 40.5923 26.0632 40.7777C26.3405 40.9631 26.6664 41.0623 27 41.0626Z" fill="#164DB3"/>
</g>
<defs>
<clipPath id="clip0">
<rect width="54" height="54" fill="white"/>
</clipPath>
</defs>
</svg>
