<svg width="54" height="54" viewBox="0 0 54 54" fill="none" xmlns="http://www.w3.org/2000/svg">
<g clip-path="url(#clip0)">
<path d="M32.5599 18.9L31.4687 18.513C31.1333 17.6728 31.089 16.7444 31.3427 15.876C32.3345 14.803 33.0905 13.534 33.5617 12.1509C34.033 10.7677 34.2091 9.30116 34.0787 7.84577C34.1613 6.85887 34.0407 5.8655 33.7242 4.92706C33.4078 3.98863 32.9022 3.12506 32.2388 2.38974C31.5754 1.65442 30.7682 1.06297 29.8672 0.651935C28.9661 0.240905 27.9904 0.0190303 27.0002 2.46136e-05C25.9531 -0.0028094 24.9199 0.239126 23.9829 0.706525C23.9107 0.741377 23.8467 0.79129 23.7953 0.852913C23.7439 0.914536 23.7063 0.986442 23.685 1.0638C23.6636 1.14116 23.6591 1.22219 23.6717 1.30144C23.6843 1.38069 23.7137 1.45633 23.7579 1.52327C25.0057 3.39294 25.6648 5.59353 25.6502 7.84127C25.8053 10.7078 25.0816 13.5534 23.5757 15.9975C23.5291 16.0681 23.4991 16.1482 23.4879 16.232C23.4766 16.3158 23.4845 16.401 23.5109 16.4813C23.5374 16.5616 23.5816 16.6349 23.6403 16.6957C23.6991 16.7565 23.7708 16.8032 23.8502 16.8323C27.7224 18.2813 30.6002 19.5525 32.1437 21.7665C32.2062 21.8532 32.292 21.9203 32.3912 21.9602C32.4904 22 32.5988 22.0109 32.7039 21.9915C33.8829 21.7823 35.1294 21.6135 36.4074 21.5078C36.5332 21.4976 36.6519 21.4455 36.7445 21.3598C36.8371 21.2741 36.8981 21.1597 36.9179 21.0351C36.9376 20.9104 36.9149 20.7828 36.8533 20.6726C36.7917 20.5625 36.6949 20.4763 36.5784 20.4278C35.3949 19.9418 34.0494 19.4445 32.5599 18.9Z" fill="#3076F8"/>
<path d="M21.375 30.276C21.3751 28.9431 21.764 27.6393 22.4942 26.5242C23.2244 25.4092 24.264 24.5314 25.4857 23.9985C26.3837 23.6197 27.3042 23.2966 28.242 23.031C28.3441 23.001 28.4355 22.9427 28.5058 22.8628C28.5761 22.783 28.6223 22.6848 28.639 22.5797C28.6557 22.4747 28.6423 22.367 28.6003 22.2693C28.5583 22.1715 28.4895 22.0877 28.4018 22.0275C26.1614 20.7246 23.7827 19.6756 21.3097 18.9L20.2185 18.513C19.8821 17.6714 19.8378 16.7413 20.0925 15.8715C21.0844 14.7985 21.8403 13.5295 22.3115 12.1463C22.7828 10.7632 22.9589 9.29664 22.8285 7.84125C22.9105 6.8547 22.7894 5.86182 22.4726 4.92392C22.1558 3.98601 21.6502 3.123 20.9868 2.38817C20.3235 1.65335 19.5165 1.06231 18.6158 0.651552C17.7151 0.240798 16.7398 0.019049 15.75 0C14.7604 0.0193524 13.7853 0.241324 12.8849 0.652213C11.9844 1.0631 11.1778 1.65419 10.5146 2.38898C9.85154 3.12377 9.34608 3.98668 9.02945 4.92443C8.71283 5.86219 8.59177 6.85489 8.67375 7.84125C8.54081 9.28181 8.71075 10.7343 9.17265 12.1052C9.63454 13.4762 10.3782 14.7353 11.3558 15.8017C11.6437 16.6672 11.6437 17.6026 11.3558 18.468L10.1925 18.9C5.67675 20.5582 2.41425 21.7575 1.39275 23.7982C0.493922 25.8755 0.0203535 28.1117 0 30.375C0 30.6734 0.118526 30.9595 0.329505 31.1705C0.540483 31.3815 0.826631 31.5 1.125 31.5H20.8125C20.9617 31.5 21.1048 31.4407 21.2102 31.3352C21.3157 31.2298 21.375 31.0867 21.375 30.9375V30.276Z" fill="#3076F8"/>
<path d="M51.9142 27.09C47.8863 25.5828 43.626 24.7909 39.3255 24.75C35.0564 24.7833 30.8273 25.5756 26.8358 27.09C26.216 27.3608 25.6886 27.8064 25.3182 28.3722C24.9477 28.9381 24.7503 29.5997 24.75 30.276V37.9103C24.9679 41.33 26.193 44.6088 28.2711 47.3335C30.3491 50.0582 33.1871 52.1069 36.4275 53.2215L37.674 53.694C38.201 53.8967 38.7609 54.0004 39.3255 54C39.8906 53.9999 40.451 53.897 40.9792 53.6962L42.2235 53.2215C49.1558 50.58 54 44.2845 54 37.9103V30.276C53.9994 29.5997 53.8019 28.9383 53.4314 28.3725C53.061 27.8067 52.5338 27.361 51.9142 27.09ZM41.0625 34.875C41.0622 34.949 41.0765 35.0222 41.1047 35.0906C41.1329 35.159 41.1743 35.2211 41.2266 35.2734C41.2789 35.3257 41.341 35.3671 41.4094 35.3953C41.4778 35.4235 41.551 35.4378 41.625 35.4375H46.125C46.5726 35.4375 47.0018 35.6153 47.3182 35.9318C47.6347 36.2482 47.8125 36.6774 47.8125 37.125C47.8125 37.5726 47.6347 38.0018 47.3182 38.3182C47.0018 38.6347 46.5726 38.8125 46.125 38.8125H41.625C41.551 38.8122 41.4778 38.8265 41.4094 38.8547C41.341 38.8829 41.2789 38.9243 41.2266 38.9766C41.1743 39.0289 41.1329 39.091 41.1047 39.1594C41.0765 39.2278 41.0622 39.301 41.0625 39.375V43.875C41.0625 44.3226 40.8847 44.7518 40.5682 45.0682C40.2518 45.3847 39.8226 45.5625 39.375 45.5625C38.9274 45.5625 38.4982 45.3847 38.1818 45.0682C37.8653 44.7518 37.6875 44.3226 37.6875 43.875V39.375C37.6875 39.2258 37.6282 39.0827 37.5227 38.9773C37.4173 38.8718 37.2742 38.8125 37.125 38.8125H32.625C32.1774 38.8125 31.7482 38.6347 31.4318 38.3182C31.1153 38.0018 30.9375 37.5726 30.9375 37.125C30.9375 36.6774 31.1153 36.2482 31.4318 35.9318C31.7482 35.6153 32.1774 35.4375 32.625 35.4375H37.125C37.2742 35.4375 37.4173 35.3782 37.5227 35.2727C37.6282 35.1673 37.6875 35.0242 37.6875 34.875V30.375C37.6875 29.9274 37.8653 29.4982 38.1818 29.1818C38.4982 28.8653 38.9274 28.6875 39.375 28.6875C39.8226 28.6875 40.2518 28.8653 40.5682 29.1818C40.8847 29.4982 41.0625 29.9274 41.0625 30.375V34.875Z" fill="#164DB3"/>
</g>
<defs>
<clipPath id="clip0">
<rect width="54" height="54" fill="white"/>
</clipPath>
</defs>
</svg>
