<svg width="54" height="54" viewBox="0 0 54 54" fill="none" xmlns="http://www.w3.org/2000/svg">
<g clip-path="url(#clip0)">
<path d="M54.0003 5.82525C54.025 4.30739 53.4466 2.8417 52.3921 1.74966C51.3376 0.657621 49.8931 0.0283969 48.3753 0L5.62527 0C4.10747 0.0283969 2.6629 0.657621 1.6084 1.74966C0.553906 2.8417 -0.0244217 4.30739 0.000271164 5.82525V37.125C0.000271164 38.9152 0.71143 40.6321 1.9773 41.898C3.24317 43.1638 4.96006 43.875 6.75027 43.875H23.0628C23.212 43.875 23.355 43.9343 23.4605 44.0398C23.566 44.1452 23.6253 44.2883 23.6253 44.4375V48.9375C23.6253 49.0867 23.566 49.2298 23.4605 49.3352C23.355 49.4407 23.212 49.5 23.0628 49.5H11.2503C10.6535 49.5 10.0812 49.7371 9.65928 50.159C9.23732 50.581 9.00027 51.1533 9.00027 51.75C9.00027 52.3467 9.23732 52.919 9.65928 53.341C10.0812 53.7629 10.6535 54 11.2503 54H42.7503C43.347 54 43.9193 53.7629 44.3413 53.341C44.7632 52.919 45.0003 52.3467 45.0003 51.75C45.0003 51.1533 44.7632 50.581 44.3413 50.159C43.9193 49.7371 43.347 49.5 42.7503 49.5H28.6878C28.5386 49.5 28.3955 49.4407 28.29 49.3352C28.1845 49.2298 28.1253 49.0867 28.1253 48.9375V44.4375C28.1253 44.2883 28.1845 44.1452 28.29 44.0398C28.3955 43.9343 28.5386 43.875 28.6878 43.875H47.2503C49.0405 43.875 50.7574 43.1638 52.0232 41.898C53.2891 40.6321 54.0003 38.9152 54.0003 37.125V5.82525ZM5.62527 33.75C5.3269 33.75 5.04075 33.6315 4.82978 33.4205C4.6188 33.2095 4.50027 32.9234 4.50027 32.625V5.82525C4.47653 5.50095 4.58115 5.18031 4.79158 4.93241C5.00202 4.68452 5.30142 4.52923 5.62527 4.5H48.3753C48.6991 4.52923 48.9985 4.68452 49.209 4.93241C49.4194 5.18031 49.524 5.50095 49.5003 5.82525V32.625C49.5003 32.9234 49.3817 33.2095 49.1708 33.4205C48.9598 33.6315 48.6736 33.75 48.3753 33.75H5.62527Z" fill="#3076F8"/>
<path d="M10.6875 11.25H33.1875" stroke="#3076F8" stroke-width="3.375" stroke-linecap="round" stroke-linejoin="round"/>
<path d="M10.6875 19.125H33.1875" stroke="#3076F8" stroke-width="3.375" stroke-linecap="round" stroke-linejoin="round"/>
<path d="M10.6875 27H23.625" stroke="#3076F8" stroke-width="3.375" stroke-linecap="round" stroke-linejoin="round"/>
<path d="M49.6688 55.6876C49.017 55.6881 48.386 55.4587 47.8868 55.0396L42.9368 50.9108L37.9868 55.0373C37.5758 55.3792 37.0759 55.597 36.5456 55.6651C36.0154 55.7333 35.4766 55.649 34.9925 55.4222C34.5084 55.1953 34.0989 54.8353 33.8119 54.3842C33.5249 53.9332 33.3724 53.4097 33.372 52.8751V40.6148C31.9896 39.5982 30.9805 38.1547 30.5006 36.5072C30.0207 34.8597 30.0968 33.1 30.717 31.5001C30.3012 30.407 30.1341 29.2351 30.2277 28.0694C30.3213 26.9037 30.6734 25.7735 31.2584 24.7609C31.8433 23.7482 32.6465 22.8786 33.6095 22.2151C34.5725 21.5516 35.6712 21.1109 36.8258 20.9251C37.5642 20.0166 38.4959 19.2842 39.553 18.7812C40.6101 18.2781 41.7661 18.0171 42.9368 18.0171C44.1075 18.0171 45.2635 18.2781 46.3206 18.7812C47.3777 19.2842 48.3094 20.0166 49.0478 20.9251C50.2028 21.1104 51.302 21.5506 52.2655 22.2139C53.2291 22.8771 54.0328 23.7467 54.6182 24.7594C55.2036 25.7721 55.5561 26.9025 55.65 28.0685C55.7439 29.2345 55.5769 30.4067 55.161 31.5001C55.7817 33.1011 55.8571 34.8622 55.3754 36.5104C54.8938 38.1587 53.8821 39.6021 52.497 40.6171V52.8751C52.4958 53.4097 52.3429 53.933 52.0562 54.3843C51.7694 54.8355 51.3606 55.1962 50.877 55.4243C50.4974 55.5964 50.0856 55.6861 49.6688 55.6876ZM38.7563 35.3746C39.4366 35.3769 40.1005 35.5833 40.6621 35.9672C41.2237 36.3511 41.6572 36.8948 41.9063 37.5278C41.9848 37.7406 42.1267 37.9241 42.3127 38.0538C42.4988 38.1835 42.7201 38.253 42.9469 38.253C43.1737 38.253 43.395 38.1835 43.5811 38.0538C43.7672 37.9241 43.909 37.7406 43.9875 37.5278C44.2387 36.8965 44.6727 36.3547 45.234 35.9718C45.7953 35.5889 46.4581 35.3825 47.1375 35.3791C47.3026 35.3785 47.4673 35.3913 47.6303 35.4173H47.6865C47.9014 35.4412 48.1187 35.4033 48.3127 35.3081C48.5068 35.2128 48.6697 35.0642 48.7823 34.8796C48.8974 34.685 48.9493 34.4595 48.9308 34.2342C48.9123 34.0089 48.8242 33.7949 48.6788 33.6218C48.1936 33.0237 47.9287 32.277 47.9287 31.5068C47.9287 30.7367 48.1936 29.9899 48.6788 29.3918C48.8244 29.218 48.9129 29.0036 48.9322 28.7778C48.9515 28.5519 48.9007 28.3255 48.7868 28.1296C48.6915 27.9589 48.552 27.817 48.3829 27.7188C48.2139 27.6206 48.0215 27.5698 47.826 27.5716C47.5955 27.6024 47.3634 27.6204 47.1308 27.6256C46.4498 27.6289 45.7839 27.4252 45.2214 27.0414C44.6588 26.6577 44.2262 26.112 43.9808 25.4768C43.9018 25.2648 43.7599 25.082 43.5741 24.9529C43.3883 24.8239 43.1675 24.7547 42.9413 24.7547C42.7151 24.7547 42.4942 24.8239 42.3084 24.9529C42.1226 25.082 41.9807 25.2648 41.9018 25.4768C41.6585 26.1138 41.2265 26.6613 40.6636 27.0461C40.1006 27.4309 39.4336 27.6346 38.7518 27.6301C38.5837 27.6277 38.4161 27.6135 38.25 27.5873H38.1825C37.9703 27.5649 37.756 27.6034 37.5648 27.6982C37.3735 27.793 37.2132 27.9403 37.1025 28.1228C36.987 28.3182 36.9351 28.5446 36.954 28.7708C36.973 28.997 37.0618 29.2117 37.2083 29.3851C37.686 29.9861 37.946 30.7312 37.946 31.4989C37.946 32.2667 37.686 33.0118 37.2083 33.6128C37.0633 33.787 36.9755 34.0015 36.9565 34.2273C36.9376 34.4531 36.9886 34.6792 37.1025 34.8751C37.1994 35.0461 37.3406 35.1878 37.5113 35.2852C37.682 35.3827 37.8758 35.4322 38.0723 35.4286C38.2992 35.3985 38.5275 35.3804 38.7563 35.3746Z" fill="#164DB3"/>
<path d="M42.9367 19.6876C43.9694 19.683 44.9864 19.9397 45.8932 20.4338C46.7999 20.9279 47.567 21.6434 48.123 22.5136C49.154 22.5644 50.1558 22.8729 51.0368 23.4108C51.9178 23.9488 52.6498 24.6991 53.1659 25.593C53.6821 26.487 53.9658 27.4961 53.9913 28.528C54.0167 29.5599 53.783 30.5818 53.3115 31.5001C54.0501 32.9223 54.2018 34.5774 53.734 36.1103C53.2663 37.6431 52.2163 38.9315 50.8095 39.6991V52.8751C50.8096 53.089 50.7486 53.2985 50.6339 53.479C50.5191 53.6596 50.3552 53.8036 50.1615 53.8943C50.0065 53.9638 49.8386 53.9999 49.6687 54.0001C49.4107 54.0002 49.1611 53.9084 48.9645 53.7413L42.9345 48.7126L36.9 53.7413C36.6961 53.9081 36.4411 53.9994 36.1777 54.0001C36.0129 54.0002 35.8501 53.9641 35.7007 53.8943C35.507 53.8036 35.3431 53.6596 35.2284 53.479C35.1136 53.2985 35.0527 53.089 35.0527 52.8751V39.6991C33.6499 38.9275 32.6044 37.6381 32.1394 36.1062C31.6745 34.5742 31.8269 32.9212 32.5642 31.5001C32.0937 30.5827 31.8604 29.5622 31.8854 28.5315C31.9105 27.5008 32.1931 26.4928 32.7076 25.5993C33.2221 24.7059 33.9521 23.9555 34.8309 23.4165C35.7098 22.8775 36.7096 22.5671 37.7392 22.5136C38.2945 21.6453 39.0598 20.9311 39.9644 20.4371C40.869 19.9431 41.8836 19.6853 42.9142 19.6876H42.9367ZM38.7292 25.9381C38.6433 25.938 38.5576 25.9313 38.4727 25.9178C38.3238 25.8951 38.1734 25.8831 38.0227 25.8818C37.4953 25.8846 36.9795 26.0365 36.5347 26.3199C36.0899 26.6033 35.7343 27.0067 35.5089 27.4835C35.2835 27.9603 35.1976 28.4912 35.261 29.0147C35.3244 29.5383 35.5346 30.0333 35.8672 30.4426C36.1069 30.7425 36.2375 31.115 36.2375 31.499C36.2375 31.8829 36.1069 32.2554 35.8672 32.5553C35.5336 32.9663 35.3234 33.4635 35.261 33.9891C35.1985 34.5148 35.2864 35.0473 35.5144 35.525C35.7424 36.0027 36.1012 36.406 36.5492 36.688C36.9971 36.97 37.5159 37.1192 38.0452 37.1183C38.1914 37.1182 38.3373 37.1069 38.4817 37.0846C38.5667 37.0722 38.6524 37.0655 38.7382 37.0643C39.0786 37.0638 39.4112 37.1663 39.6922 37.3582C39.9733 37.5502 40.1898 37.8226 40.3132 38.1398C40.5151 38.6694 40.8731 39.1252 41.3398 39.4468C41.8065 39.7684 42.3598 39.9405 42.9266 39.9405C43.4934 39.9405 44.0468 39.7684 44.5134 39.4468C44.9801 39.1252 45.3381 38.6694 45.54 38.1398C45.6658 37.8245 45.883 37.5539 46.1636 37.3627C46.4442 37.1715 46.7754 37.0684 47.115 37.0666C47.1971 37.0669 47.279 37.0729 47.3602 37.0846C47.5047 37.1069 47.6506 37.1182 47.7967 37.1183C48.3254 37.1201 48.8437 36.9718 49.2914 36.6906C49.7391 36.4094 50.0977 36.0068 50.3257 35.5298C50.5536 35.0528 50.6414 34.5209 50.5788 33.9959C50.5163 33.4709 50.306 32.9745 49.9725 32.5643C49.7313 32.2642 49.5998 31.8907 49.5998 31.5057C49.5998 31.1207 49.7313 30.7472 49.9725 30.4471C50.3056 30.0367 50.5157 29.5404 50.5785 29.0155C50.6413 28.4907 50.5542 27.9588 50.3272 27.4814C50.1003 27.0041 49.7429 26.6007 49.2962 26.318C48.8496 26.0353 48.3321 25.8849 47.8035 25.8841C47.6527 25.8837 47.5022 25.8957 47.3535 25.9201C47.2707 25.9317 47.1873 25.9377 47.1037 25.9381C46.7637 25.9384 46.4315 25.8362 46.1505 25.6447C45.8695 25.4532 45.6528 25.1814 45.5287 24.8648C45.327 24.3357 44.9693 23.8804 44.503 23.5592C44.0367 23.238 43.4838 23.0659 42.9176 23.0659C42.3514 23.0659 41.7985 23.238 41.3322 23.5592C40.8659 23.8804 40.5082 24.3357 40.3065 24.8648C40.1831 25.1823 39.9668 25.455 39.6857 25.6473C39.4046 25.8397 39.072 25.9426 38.7315 25.9426L38.7292 25.9381ZM42.9165 16.3171C41.605 16.3156 40.3074 16.5857 39.1054 17.1104C37.9034 17.6352 36.8231 18.4031 35.9325 19.3658C34.651 19.6597 33.4439 20.2146 32.3865 20.996C31.3292 21.7773 30.4443 22.7683 29.7872 23.9071C29.1301 25.0458 28.7149 26.3078 28.5675 27.6143C28.4201 28.9207 28.5436 30.2435 28.9305 31.5001C28.5392 32.7557 28.4133 34.0791 28.5609 35.386C28.7085 36.6929 29.1263 37.9548 29.7877 39.0916C30.2911 39.9625 30.9316 40.7465 31.6845 41.4136V52.8751C31.6841 53.7295 31.9269 54.5663 32.3846 55.2878C32.8423 56.0092 33.4959 56.5855 34.2691 56.9492C35.0422 57.3128 35.9029 57.4489 36.7505 57.3414C37.5981 57.234 38.3976 56.8874 39.0555 56.3423L42.9345 53.1001L46.8 56.3333C47.6025 57.0082 48.6179 57.3773 49.6665 57.3751C50.3267 57.3754 50.9792 57.2327 51.579 56.9566C52.3556 56.5934 53.013 56.0168 53.4743 55.2941C53.9357 54.5714 54.182 53.7325 54.1845 52.8751V41.4203C54.9408 40.7524 55.5843 39.9668 56.0902 39.0938C56.751 37.9564 57.1684 36.6941 57.3159 35.3869C57.4635 34.0798 57.338 32.7562 56.9475 31.5001C57.3344 30.2439 57.4581 28.9213 57.311 27.6152C57.1639 26.309 56.749 25.0471 56.0924 23.9084C55.4357 22.7697 54.5514 21.7787 53.4945 20.9971C52.4377 20.2155 51.2311 19.6602 49.95 19.3658C49.0567 18.3983 47.9719 17.6272 46.7645 17.1016C45.5571 16.5759 44.2536 16.3072 42.9367 16.3126L42.9165 16.3171ZM39.105 29.3041C39.8679 29.2532 40.609 29.0286 41.2719 28.6477C41.9348 28.2667 42.5019 27.7393 42.93 27.1058C43.3571 27.7361 43.9221 28.2609 44.582 28.6406C45.242 29.0203 45.9797 29.2448 46.7392 29.2973C46.4034 29.9839 46.2288 30.738 46.2288 31.5023C46.2288 32.2666 46.4034 33.0208 46.7392 33.7073C45.9808 33.7694 45.2457 33.9994 44.5872 34.3808C43.9288 34.7622 43.3634 35.2853 42.9322 35.9123C42.5002 35.2821 41.9323 34.7568 41.2703 34.3752C40.6083 33.9936 39.8691 33.7653 39.1072 33.7073C39.435 33.0197 39.6051 32.2675 39.6051 31.5057C39.6051 30.7439 39.435 29.9917 39.1072 29.3041H39.105Z" fill="white"/>
<path d="M42.9346 36C45.4199 36 47.4346 33.9853 47.4346 31.5C47.4346 29.0147 45.4199 27 42.9346 27C40.4493 27 38.4346 29.0147 38.4346 31.5C38.4346 33.9853 40.4493 36 42.9346 36Z" fill="#164DB3"/>
</g>
<defs>
<clipPath id="clip0">
<rect width="54" height="54" fill="white"/>
</clipPath>
</defs>
</svg>
