<svg width="32" height="32" viewBox="0 0 32 32" fill="none" xmlns="http://www.w3.org/2000/svg">
<g clip-path="url(#clip0_3_2)">
<path d="M16 0.5C7.45001 0.5 0.5 7.45001 0.5 16C0.5 24.55 7.45001 31.5 16 31.5C24.55 31.5 31.5 24.55 31.5 16C31.5 7.45001 24.55 0.5 16 0.5ZM14.5 23.67V12.6C14.5 11.77 15.17 11.1 16 11.1C16.83 11.1 17.5 11.77 17.5 12.6V23.67C17.5 24.5 16.83 25.17 16 25.17C15.17 25.17 14.5 24.5 14.5 23.67ZM16 9.82996C15.17 9.82996 14.5 9.15998 14.5 8.32996C14.5 7.5 15.17 6.82996 16 6.82996C16.83 6.82996 17.5 7.5 17.5 8.32996C17.5 9.14996 16.83 9.82996 16 9.82996Z" fill="#3076F8"/>
</g>
<defs>
<clipPath id="clip0_3_2">
<rect width="32" height="32" fill="white"/>
</clipPath>
</defs>
</svg>
