<svg width="50" height="50" viewBox="0 0 50 50" fill="none" xmlns="http://www.w3.org/2000/svg">
<path d="M30.217 35.252C30.217 35.252 34.266 32.934 35.326 32.377C36.383 31.818 37.478 31.677 38.143 32.083C39.15 32.699 47.606 38.324 48.318 38.822C49.03 39.321 49.373 40.746 48.394 42.142C47.419 43.538 42.921 49.058 41.015 48.999C39.106 48.937 31.169 48.763 16.202 33.792C1.23801 18.826 1.06101 10.887 1.00001 8.97801C0.939013 7.07001 6.45901 2.57101 7.85501 1.59501C9.25301 0.620006 10.68 0.987006 11.176 1.67301C11.74 2.45401 17.3 10.883 17.912 11.849C18.331 12.509 18.177 13.61 17.618 14.668C17.062 15.728 14.744 19.777 14.744 19.777C14.744 19.777 16.378 22.564 21.904 28.089C27.431 33.615 30.217 35.252 30.217 35.252Z" stroke="white" stroke-width="2" stroke-miterlimit="10"/>
</svg>
